<svg width="50" height="30" viewBox="0 0 50 30" fill="none" xmlns="http://www.w3.org/2000/svg">
<path d="M2 13C0.895431 13 1.07061e-07 13.8954 0 15C-1.07061e-07 16.1046 0.89543 17 2 17L2 13ZM49.4142 16.4142C50.1953 15.6332 50.1953 14.3668 49.4142 13.5858L36.6863 0.857868C35.9052 0.0768191 34.6389 0.076819 33.8579 0.857867C33.0768 1.63892 33.0768 2.90525 33.8579 3.68629L45.1716 15L33.8579 26.3137C33.0768 27.0948 33.0768 28.3611 33.8579 29.1421C34.6389 29.9232 35.9052 29.9232 36.6863 29.1421L49.4142 16.4142ZM2 17L48 17L48 13L2 13L2 17Z" fill="#bd1212"/>
</svg>
